# xmcd
# 
# Track frame offsets:
#     300
#     8139
#     28597
#     45172
#     58001
#     85117
# 
# Disc length: 1192
# 
# Revision: 0
# Processed by: cddbd v1.5.2PL0 Copyright (c) Steve Scherf et al.
# Submitted via: fre:ac v1.0.27
# 
DISCID=3b04a406
DTITLE=長見 順 - Madam Guitar plays Piano Madam
DYEAR=2010
DGENRE=Blues
TTITLE0=To Madam Guitar (自宅バージョン)
TTITLE1=11才の俺のブルース
TTITLE2=ハナウタ
TTITLE3=中年 (セルフカバー)
TTITLE4=ラッキイ
TTITLE5=From Madam Guitar (酒場バージョン)
EXTD=
EXTT0=
EXTT1=
EXTT2=
EXTT3=
EXTT4=
EXTT5=
PLAYORDER=
